<?xml version="1.0" encoding="UTF-8" standalone="no"?>
<!-- Created with Inkscape (http://www.inkscape.org/) -->

<svg
   xmlns:dc="http://purl.org/dc/elements/1.1/"
   xmlns:cc="http://creativecommons.org/ns#"
   xmlns:rdf="http://www.w3.org/1999/02/22-rdf-syntax-ns#"
   xmlns:svg="http://www.w3.org/2000/svg"
   xmlns="http://www.w3.org/2000/svg"
   xmlns:sodipodi="http://sodipodi.sourceforge.net/DTD/sodipodi-0.dtd"
   xmlns:inkscape="http://www.inkscape.org/namespaces/inkscape"
   width="512"
   height="512"
   viewBox="0 0 511.99999 511.99999"
   id="svg2"
   version="1.1"
   inkscape:version="0.91 r13725"
   sodipodi:docname="logo.svg"
   inkscape:export-filename="/home/riccardo/prog/rantonels.github.io/images/logo.png"
   inkscape:export-xdpi="600"
   inkscape:export-ydpi="600">
  <defs
     id="defs4">
    <inkscape:path-effect
       effect="knot"
       id="path-effect5750"
       is_visible="true"
       interruption_width="4"
       prop_to_stroke_width="true"
       add_stroke_width="true"
       add_other_stroke_width="true"
       switcher_size="15"
       crossing_points_vector="" />
    <inkscape:path-effect
       effect="knot"
       id="path-effect5748"
       is_visible="true"
       interruption_width="4.1"
       prop_to_stroke_width="true"
       add_stroke_width="true"
       add_other_stroke_width="true"
       switcher_size="15"
       crossing_points_vector="309.20559 | 597.79625 | 0 | 1 | 0 | 3 | 0.58800868 | 3.4119894 | 1 | 401.36037 | 651.00182 | 0 | 1 | 1 | 4 | 1.4119915 | 4.5880105 | 1 | 454.56594 | 743.15661 | 0 | 1 | 2 | 5 | 2.5880087 | 5.4119893 | 1 | 454.56596 | 849.56778 | 0 | 1 | 3 | 6 | 3.4119916 | 6.5880106 | 1 | 401.36036 | 941.72255 | 0 | 1 | 4 | 7 | 4.5880086 | 7.4119894 | 1 | 309.20558 | 994.92815 | 0 | 1 | 5 | 8 | 5.4119915 | 8.5880107 | 1 | 202.79442 | 994.92815 | 0 | 1 | 6 | 9 | 6.5880085 | 9.4119893 | 1 | 110.63964 | 941.72254 | 0 | 1 | 7 | 10 | 7.4119914 | 10.588011 | 1 | 57.434042 | 849.56778 | 0 | 1 | 8 | 11 | 8.5880085 | 11.411989 | 1 | 57.43406 | 743.15661 | 0 | 1 | 9 | 0 | 9.4119913 | 0.58801067 | 1 | 110.63964 | 651.00181 | 0 | 1 | 10 | 1 | 10.588009 | 1.4119895 | 1 | 202.7944 | 597.79625 | 0 | 1 | 11 | 2 | 11.411991 | 2.5880106 | 1" />
  </defs>
  <sodipodi:namedview
     id="base"
     pagecolor="#ffffff"
     bordercolor="#666666"
     borderopacity="1.0"
     inkscape:pageopacity="0.0"
     inkscape:pageshadow="2"
     inkscape:zoom="0.70000001"
     inkscape:cx="203.12551"
     inkscape:cy="520.3201"
     inkscape:document-units="px"
     inkscape:current-layer="layer1"
     showgrid="false"
     units="px"
     inkscape:object-paths="true"
     inkscape:object-nodes="true"
     inkscape:window-width="1892"
     inkscape:window-height="1024"
     inkscape:window-x="12"
     inkscape:window-y="40"
     inkscape:window-maximized="1">
    <inkscape:grid
       type="xygrid"
       id="grid4136"
       spacingx="4"
       spacingy="4"
       empspacing="4" />
  </sodipodi:namedview>
  <metadata
     id="metadata7">
    <rdf:RDF>
      <cc:Work
         rdf:about="">
        <dc:format>image/svg+xml</dc:format>
        <dc:type
           rdf:resource="http://purl.org/dc/dcmitype/StillImage" />
        <dc:title />
      </cc:Work>
    </rdf:RDF>
  </metadata>
  <g
     inkscape:label="Layer 1"
     inkscape:groupmode="layer"
     id="layer1"
     transform="translate(0,-540.36219)">
    <path
       id="path5741"
       transform="matrix(0,1,-1,0,1052.3622,540.36218)"
       style="opacity:1;fill:none;fill-opacity:1;stroke:#282828;stroke-width:21.8;stroke-linecap:round;stroke-linejoin:miter;stroke-miterlimit:4;stroke-dasharray:none;stroke-dashoffset:0;stroke-opacity:1"
       d="m 256.00001,540.36218 c 35.28213,0 57.76476,85.38421 88.31998,103.02527 30.55523,17.64107 115.74145,-5.58049 133.38252,24.97474 17.64106,30.55522 -45.06251,92.71785 -45.06251,127.99998 0,35.28214 62.70357,97.44479 45.0625,128.00002 -17.64106,30.55522 -102.82727,7.33365 -133.38249,24.97472 -30.55523,17.64106 -53.03788,103.02529 -88.32002,103.02529 -35.28213,0 -57.76476,-85.38422 -88.31998,-103.02529 C 137.12478,931.69584 51.938563,954.9174 34.297493,924.36218 16.656427,893.80696 79.36,831.64432 79.360001,796.36219 79.360002,761.08005 16.656433,698.9174 34.2975,668.36218 51.938564,637.80695 137.12477,661.02852 167.67999,643.38746 198.23522,625.74639 220.71787,540.36218 256.00001,540.36218 Z M 0,796.36219 c 0,-35.28213 85.38421,-57.76476 103.02527,-88.31998 17.64107,-30.55523 -5.58049,-115.74145 24.97474,-133.38252 30.55522,-17.64106 92.71785,45.06251 127.99998,45.06251 35.28214,0 97.44479,-62.70357 128.00002,-45.0625 30.55522,17.64106 7.33365,102.82727 24.97472,133.38249 17.64106,30.55523 103.02529,53.03788 103.02529,88.32002 0,35.28213 -85.38422,57.76476 -103.02529,88.31998 -17.64107,30.55523 5.58049,115.74141 -24.97473,133.38251 -30.55522,17.6411 -92.71786,-45.0625 -127.99999,-45.0625 -35.28214,0 -97.44479,62.7036 -128.00001,45.0625 C 97.44477,1000.4236 120.66634,915.23743 103.02528,884.68221 85.38421,854.12698 0,831.64433 0,796.36219 Z" />
    <path
       d="m 131.63992,650.68124 c 1.61759,-0.067 3.2153,-0.14807 4.78935,-0.24598 6.27934,-0.39059 12.18232,-1.04997 17.47031,-2.16299 5.288,-1.11301 9.96101,-2.67967 13.78041,-4.8848 3.8194,-2.20513 7.51267,-5.46875 11.12058,-9.49178 3.6079,-4.02303 7.13043,-8.80547 10.60836,-14.04825 3.47793,-5.24277 6.91126,-10.94587 10.34075,-16.81023 3.42949,-5.86437 6.85515,-11.88998 10.31773,-17.77778 3.46258,-5.8878 6.9621,-11.63777 10.5393,-16.95085 3.57721,-5.31308 7.23211,-10.18926 11.00547,-14.32947 3.77337,-4.1402 7.66519,-7.54443 11.71624,-9.91361 4.05105,-2.36918 8.26132,-3.70331 12.67159,-3.70331 4.41027,-1e-5 8.62054,1.33412 12.67159,3.7033 4.05105,2.36918 7.94287,5.77341 11.71623,9.91361 3.77336,4.14021 7.42826,9.01639 11.00546,14.32947 2.4346,3.61601 4.83321,7.43439 7.20869,11.36086 m 21.38135,36.15322 c 0.86687,1.36738 1.7359,2.71054 2.60773,4.02478 3.47793,5.24277 7.00046,10.02521 10.60836,14.04824 3.6079,4.02303 7.30117,7.28665 11.12057,9.49178 3.8194,2.20513 8.49242,3.77179 13.78041,4.88481 5.288,1.11302 11.19098,1.7724 17.47032,2.16299 6.27934,0.39059 12.93504,0.51239 19.72847,0.55023 6.79343,0.0378 13.7246,-0.008 20.55487,0.0465 6.83027,0.0548 13.55965,0.21046 19.94952,0.65188 6.38986,0.44141 12.44021,1.16856 17.91241,2.36628 5.47221,1.19773 10.36627,2.86603 14.44357,5.18975 4.07729,2.32372 7.33782,5.30287 9.54295,9.12227 2.20513,3.8194 3.15488,8.13267 3.12863,12.82557 -0.0262,4.6929 -1.02848,9.76543 -2.72732,15.10336 -1.69885,5.33793 -4.09429,10.94125 -6.90695,16.69574 -1.91427,3.91645 -4.02179,7.90291 -6.23448,11.92339 m -20.61893,36.5934 c -0.75074,1.4344 -1.47943,2.85857 -2.18167,4.2707 -2.80141,5.63336 -5.18186,11.07518 -6.86195,16.21123 -1.6801,5.13605 -2.65984,9.96632 -2.65984,14.37659 0,4.41027 0.97974,9.24054 2.65984,14.37659 1.68009,5.13605 4.06054,10.57787 6.86195,16.21124 2.80141,5.63336 6.02378,11.45826 9.38772,17.36047 3.36394,5.90221 6.86945,11.88172 10.23714,17.8243 3.36769,5.94258 6.59756,11.84824 9.41022,17.60273 2.81265,5.75449 5.2081,11.35782 6.90694,16.69575 1.69884,5.33793 2.70108,10.41046 2.72733,15.10337 0.0262,4.6929 -0.92351,9.00617 -3.12864,12.82557 -2.20513,3.8194 -5.46566,6.79854 -9.54295,9.12226 -4.0773,2.32372 -8.97136,3.99202 -14.44356,5.18975 -5.4722,1.19772 -11.52255,1.92487 -17.91241,2.36628 -4.34889,0.30042 -8.85505,0.46849 -13.44325,0.56248 m -42.0003,0.44017 c -1.61757,0.067 -3.21526,0.14805 -4.7893,0.24596 -6.27934,0.39059 -12.18231,1.04997 -17.47031,2.16299 -5.288,1.11302 -9.96101,2.67968 -13.78041,4.88481 -3.8194,2.20513 -7.51267,5.46875 -11.12057,9.49179 -3.6079,4.02303 -7.13044,8.80547 -10.60837,14.04824 -3.47793,5.24277 -6.91126,10.94588 -10.34075,16.81024 -3.42949,5.86436 -6.85514,11.88997 -10.31773,17.77777 -3.46258,5.8878 -6.96209,11.6377 -10.5393,16.9508 -3.57721,5.3131 -7.23211,10.1893 -11.00547,14.3295 -3.77337,4.1402 -7.66519,7.5444 -11.71624,9.9136 -4.05105,2.3692 -8.26132,3.7033 -12.67159,3.7033 -4.41027,0 -8.62054,-1.3341 -12.67159,-3.7033 -4.05105,-2.3692 -7.94287,-5.7734 -11.71623,-9.9136 -3.77336,-4.1402 -7.42826,-9.0164 -11.00546,-14.3295 -2.4346,-3.616 -4.8332,-7.4343 -7.20867,-11.3607 M 192.0167,976.90171 c -0.86688,-1.36739 -1.73592,-2.71057 -2.60776,-4.02482 -3.47793,-5.24278 -7.00046,-10.02522 -10.60836,-14.04825 -3.6079,-4.02303 -7.30117,-7.28665 -11.12057,-9.49178 -3.8194,-2.20513 -8.49242,-3.77179 -13.78041,-4.88481 -5.288,-1.11302 -11.19098,-1.7724 -17.47032,-2.16299 -6.27934,-0.39059 -12.93504,-0.51239 -19.72847,-0.55023 -6.79343,-0.0379 -13.72459,0.008 -20.554868,-0.0465 -6.830273,-0.0548 -13.559654,-0.21046 -19.949518,-0.65188 -6.389864,-0.44141 -12.440211,-1.16856 -17.912415,-2.36628 -5.472205,-1.19773 -10.366267,-2.86603 -14.443561,-5.18975 -4.077295,-2.32372 -7.337821,-5.30286 -9.542955,-9.12226 -2.205134,-3.8194 -3.154882,-8.13267 -3.128637,-12.82557 0.02625,-4.6929 1.028485,-9.76543 2.727328,-15.10336 1.698842,-5.33793 4.094288,-10.94126 6.906945,-16.69575 1.914254,-3.91642 4.021759,-7.90286 6.234439,-11.92331 m 20.618934,-36.59341 c 0.750754,-1.43442 1.479456,-2.85861 2.181706,-4.27077 2.80141,-5.63336 5.181858,-11.07518 6.861954,-16.21123 1.680095,-5.13605 2.659839,-9.96632 2.659839,-14.37659 0,-4.41027 -0.979743,-9.24054 -2.659838,-14.37659 -1.680096,-5.13605 -4.060544,-10.57787 -6.861952,-16.21124 -2.801409,-5.63336 -6.023779,-11.45826 -9.38772,-17.36047 -3.36394,-5.9022 -6.869451,-11.88172 -10.23714,-17.8243 -3.36769,-5.94258 -6.597559,-11.84824 -9.410216,-17.60273 -2.812657,-5.75449 -5.208102,-11.35782 -6.906944,-16.69575 -1.698842,-5.33793 -2.701082,-10.41046 -2.727327,-15.10336 -0.02625,-4.6929 0.923503,-9.00617 3.128636,-12.82557 2.205134,-3.8194 5.46566,-6.79854 9.542954,-9.12227 4.077294,-2.32372 8.971355,-3.99202 14.443559,-5.18974 5.472203,-1.19773 11.522549,-1.92487 17.912412,-2.36629 4.348877,-0.30042 8.855018,-0.46849 13.443198,-0.56247 m 20.679427,269.60082 c -0.067,-1.61757 -0.14806,-3.21525 -0.24597,-4.78928 -0.39059,-6.27934 -1.04997,-12.18232 -2.16299,-17.47031 -1.11301,-5.288 -2.67967,-9.96101 -4.8848,-13.78041 -2.20513,-3.8194 -5.468753,-7.51267 -9.491783,-11.12058 -4.02303,-3.6079 -8.80547,-7.13043 -14.048242,-10.60836 -5.242773,-3.47793 -10.945878,-6.91126 -16.810239,-10.34075 -5.864362,-3.42949 -11.889979,-6.85515 -17.777776,-10.31773 -5.887797,-3.46258 -11.637773,-6.9621 -16.950851,-10.5393 C 22.633311,828.17828 17.757131,824.52338 13.616925,820.75002 9.4767192,816.97665 6.0724879,813.08483 3.7033081,809.03378 1.3341283,804.98273 0,800.77246 0,796.36219 c 0,-4.41027 1.3341283,-8.62054 3.703308,-12.67159 2.3691797,-4.05105 5.7734108,-7.94287 9.913616,-11.71623 4.140206,-3.77336 9.016386,-7.42826 14.329464,-11.00546 3.616015,-2.4346 7.4344,-4.83322 11.360872,-7.20869 m 36.153226,-21.38136 c 1.367373,-0.86686 2.710531,-1.73589 4.024763,-2.60772 5.242772,-3.47793 10.025211,-7.00046 14.04824,-10.60836 4.023029,-3.6079 7.286651,-7.30117 9.491781,-11.12057 2.20513,-3.8194 3.77179,-8.49242 4.88481,-13.78041 1.11302,-5.288 1.7724,-11.19098 2.16299,-17.47032 0.39059,-6.27934 0.51239,-12.93504 0.55023,-19.72847 0.0379,-6.79343 -0.008,-13.7246 0.0465,-20.55487 0.0548,-6.83027 0.21046,-13.55965 0.65188,-19.94952 0.44141,-6.38986 1.16856,-12.44021 2.36628,-17.91241 1.19773,-5.47221 2.86603,-10.36627 5.18975,-14.44357 2.32372,-4.07729 5.30287,-7.33782 9.12227,-9.54295 3.8194,-2.20513 8.13267,-3.15488 12.82557,-3.12863 4.6929,0.0262 9.76543,1.02848 15.10336,2.72732 5.33793,1.69885 10.94125,4.09429 16.69574,6.90695 3.91643,1.91426 7.90289,4.02177 11.92335,6.23446 m 36.59341,20.61894 c 1.43441,0.75074 2.85859,1.47944 4.27073,2.18168 5.63336,2.80141 11.07518,5.18186 16.21123,6.86195 5.13605,1.6801 9.96632,2.65984 14.37659,2.65984 4.41027,0 9.24054,-0.97974 14.37659,-2.65984 5.13605,-1.68009 10.57787,-4.06054 16.21124,-6.86195 5.63336,-2.80141 11.45826,-6.02378 17.36047,-9.38772 5.90221,-3.36394 11.88172,-6.86945 17.8243,-10.23714 5.94258,-3.36769 11.84824,-6.59756 17.60273,-9.41022 5.75449,-2.81265 11.35782,-5.2081 16.69575,-6.90694 5.33793,-1.69884 10.41046,-2.70108 15.10337,-2.72733 4.6929,-0.0262 9.00617,0.92351 12.82557,3.12864 3.8194,2.20513 6.79854,5.46566 9.12226,9.54295 2.32372,4.0773 3.99202,8.97136 5.18975,14.44356 1.19772,5.4722 1.92487,11.52255 2.36628,17.91241 0.30042,4.34886 0.46849,8.85498 0.56247,13.44314 m 0.44016,42.00029 c 0.067,1.61762 0.14807,3.21534 0.24598,4.78942 0.39059,6.27934 1.04997,12.18231 2.16299,17.47031 1.11302,5.288 2.67968,9.96101 4.88481,13.78041 2.20513,3.8194 5.46875,7.51267 9.49179,11.12057 4.02303,3.6079 8.80547,7.13044 14.04824,10.60837 5.24277,3.47793 10.94588,6.91126 16.81024,10.34075 5.86436,3.42949 11.88998,6.85514 17.77778,10.31773 5.88779,3.46258 11.63777,6.96209 16.95085,10.5393 5.31308,3.57721 10.18926,7.23211 14.32946,11.00547 4.14021,3.77337 7.54444,7.66519 9.91362,11.71624 2.36918,4.05105 3.70331,8.26132 3.70331,12.67159 0,4.41027 -1.33413,8.62054 -3.70331,12.67159 -2.36918,4.05105 -5.77341,7.94287 -9.91362,11.71623 -4.1402,3.77336 -9.01638,7.42826 -14.32946,11.00546 -3.616,2.43459 -7.43436,4.83319 -11.36081,7.20866 m -36.15323,21.38134 c -1.3674,0.86688 -2.71058,1.73593 -4.02483,2.60777 -5.24278,3.47793 -10.02522,7.00046 -14.04825,10.60836 -4.02303,3.6079 -7.28665,7.30117 -9.49178,11.12057 -2.20513,3.8194 -3.77179,8.49242 -4.88481,13.78041 -1.11302,5.288 -1.7724,11.19098 -2.16299,17.47031 -0.39059,6.27934 -0.51239,12.93504 -0.55023,19.72847 -0.0379,6.79343 0.008,13.72459 -0.0465,20.55486 -0.0548,6.83027 -0.21046,13.55965 -0.65188,19.94952 -0.44141,6.38986 -1.16856,12.44021 -2.36628,17.91241 -1.19773,5.47221 -2.86603,10.36623 -5.18975,14.44353 -2.32372,4.0773 -5.30286,7.3379 -9.12226,9.543 -3.8194,2.2051 -8.13267,3.1549 -12.82557,3.1286 -4.6929,-0.026 -9.76543,-1.0284 -15.10336,-2.7273 -5.33793,-1.6988 -10.94126,-4.0943 -16.69575,-6.9069 -3.91644,-1.9143 -7.90289,-4.0218 -11.92335,-6.2345 m -36.5934,-20.61891 c -1.43442,-0.75075 -2.8586,-1.47945 -4.27074,-2.18169 -5.63336,-2.80141 -11.07518,-5.18186 -16.21123,-6.86196 -5.13605,-1.6801 -9.96632,-2.65984 -14.37659,-2.65984 -4.41027,0 -9.24054,0.97974 -14.37659,2.65984 -5.13605,1.6801 -10.57787,4.06055 -16.21124,6.86196 -5.63336,2.80141 -11.45826,6.02378 -17.36047,9.38772 -5.9022,3.36394 -11.88172,6.86945 -17.8243,10.23718 -5.94258,3.3677 -11.84824,6.5975 -17.60273,9.4102 -5.75449,2.8126 -11.35782,5.2081 -16.69575,6.9069 -5.33793,1.6989 -10.41046,2.7011 -15.10336,2.7273 -4.6929,0.026 -9.00617,-0.9235 -12.82557,-3.1286 -3.8194,-2.2051 -6.79854,-5.4657 -9.12227,-9.543 -2.32372,-4.0773 -3.99202,-8.97132 -5.18974,-14.44353 -1.19773,-5.4722 -1.92487,-11.52255 -2.36629,-17.91241 -0.30042,-4.34889 -0.46849,-8.85505 -0.56247,-13.44325"
       style="opacity:1;fill:none;fill-opacity:1;stroke:#ffffff;stroke-width:7;stroke-linecap:round;stroke-linejoin:miter;stroke-miterlimit:4;stroke-dasharray:none;stroke-dashoffset:0;stroke-opacity:1"
       id="path5746"
       inkscape:connector-curvature="0"
       sodipodi:nodetypes="ssssssssssssssssssssssssssssssssssssssssssssssssssssssssssssssssssssssssssssssssssssssssssssssssssssssssssssssssssssssssssssssssssssssssssssssssssssssssssssssssssssssssssssssssssssssssssssssssss"
       inkscape:path-effect="#path-effect5750"
       inkscape:original-d="m 256.00001,540.36218 c 4.41027,0 8.62054,1.33413 12.67159,3.70331 4.05105,2.36918 7.94287,5.77341 11.71623,9.91361 3.77336,4.14021 7.42826,9.01639 11.00546,14.32947 3.57721,5.31308 7.07672,11.06305 10.5393,16.95085 3.46258,5.88779 6.88824,11.91341 10.31772,17.77777 3.42949,5.86436 6.86282,11.56747 10.34075,16.81024 3.47793,5.24277 7.00046,10.02521 10.60836,14.04824 3.6079,4.02303 7.30117,7.28665 11.12057,9.49178 3.8194,2.20513 8.49242,3.77179 13.78041,4.88481 5.288,1.11302 11.19098,1.7724 17.47032,2.16299 6.27934,0.39059 12.93504,0.51239 19.72847,0.55023 6.79343,0.0378 13.7246,-0.008 20.55487,0.0465 6.83027,0.0548 13.55965,0.21046 19.94952,0.65188 6.38986,0.44141 12.44021,1.16856 17.91241,2.36628 5.47221,1.19773 10.36627,2.86603 14.44357,5.18975 4.07729,2.32372 7.33782,5.30287 9.54295,9.12227 2.20513,3.8194 3.15488,8.13267 3.12863,12.82557 -0.0262,4.6929 -1.02848,9.76543 -2.72732,15.10336 -1.69885,5.33793 -4.09429,10.94125 -6.90695,16.69574 -2.81266,5.75449 -6.04253,11.66015 -9.41022,17.60273 -3.36769,5.94258 -6.8732,11.92209 -10.23714,17.8243 -3.36394,5.9022 -6.58631,11.7271 -9.38772,17.36046 -2.80141,5.63336 -5.18186,11.07518 -6.86195,16.21123 -1.6801,5.13605 -2.65984,9.96632 -2.65984,14.37659 0,4.41027 0.97974,9.24054 2.65984,14.37659 1.68009,5.13605 4.06054,10.57787 6.86195,16.21124 2.80141,5.63336 6.02378,11.45826 9.38772,17.36047 3.36394,5.90221 6.86945,11.88172 10.23714,17.8243 3.36769,5.94258 6.59756,11.84824 9.41022,17.60273 2.81265,5.75449 5.2081,11.35782 6.90694,16.69575 1.69884,5.33793 2.70108,10.41046 2.72733,15.10337 0.0262,4.6929 -0.92351,9.00617 -3.12864,12.82557 -2.20513,3.8194 -5.46566,6.79854 -9.54295,9.12226 -4.0773,2.32372 -8.97136,3.99202 -14.44356,5.18975 -5.4722,1.19772 -11.52255,1.92487 -17.91241,2.36628 -6.38986,0.44141 -13.11924,0.59709 -19.94952,0.65188 -6.83027,0.0548 -13.76143,0.009 -20.55486,0.0465 -6.79343,0.0379 -13.44913,0.15964 -19.72847,0.55023 -6.27934,0.39059 -12.18231,1.04997 -17.47031,2.16299 -5.288,1.11302 -9.96101,2.67968 -13.78041,4.88481 -3.8194,2.20513 -7.51267,5.46875 -11.12057,9.49179 -3.6079,4.02303 -7.13044,8.80547 -10.60837,14.04824 -3.47793,5.24277 -6.91126,10.94588 -10.34075,16.81024 -3.42949,5.86436 -6.85514,11.89002 -10.31773,17.77782 -3.46258,5.8878 -6.96209,11.6377 -10.5393,16.9508 -3.57721,5.3131 -7.23211,10.1893 -11.00547,14.3295 -3.77337,4.1402 -7.66519,7.5444 -11.71624,9.9136 -4.05105,2.3692 -8.26132,3.7033 -12.67159,3.7033 -4.41027,0 -8.62054,-1.3341 -12.67159,-3.7033 -4.05105,-2.3692 -7.94287,-5.7734 -11.71623,-9.9136 -3.77336,-4.1402 -7.42826,-9.0164 -11.00546,-14.3295 -3.57721,-5.3131 -7.07672,-11.063 -10.5393,-16.9508 -3.46258,-5.8878 -6.88824,-11.91346 -10.31772,-17.77782 -3.42949,-5.86436 -6.86282,-11.56747 -10.34075,-16.81024 -3.47793,-5.24278 -7.00046,-10.02522 -10.60836,-14.04825 -3.6079,-4.02303 -7.30117,-7.28665 -11.12057,-9.49178 -3.8194,-2.20513 -8.49242,-3.77179 -13.78041,-4.88481 -5.288,-1.11302 -11.19098,-1.7724 -17.47032,-2.16299 -6.27934,-0.39059 -12.93504,-0.51239 -19.72847,-0.55023 -6.79343,-0.0379 -13.72459,0.008 -20.554868,-0.0465 -6.830273,-0.0548 -13.559654,-0.21046 -19.949518,-0.65188 -6.389864,-0.44141 -12.440211,-1.16856 -17.912415,-2.36628 -5.472205,-1.19773 -10.366267,-2.86603 -14.443561,-5.18975 -4.077295,-2.32372 -7.337821,-5.30286 -9.542955,-9.12226 -2.205134,-3.8194 -3.154882,-8.13267 -3.128637,-12.82557 0.02625,-4.6929 1.028485,-9.76543 2.727328,-15.10336 1.698842,-5.33793 4.094288,-10.94126 6.906945,-16.69575 2.812657,-5.75449 6.042527,-11.66014 9.410217,-17.60272 3.36769,-5.94259 6.873201,-11.9221 10.237142,-17.8243 3.36394,-5.90221 6.586311,-11.72711 9.38772,-17.36047 2.80141,-5.63336 5.181858,-11.07518 6.861954,-16.21123 1.680095,-5.13605 2.659839,-9.96632 2.659839,-14.37659 0,-4.41027 -0.979743,-9.24054 -2.659838,-14.37659 -1.680096,-5.13605 -4.060544,-10.57787 -6.861952,-16.21124 -2.801409,-5.63336 -6.023779,-11.45826 -9.38772,-17.36047 -3.36394,-5.9022 -6.869451,-11.88172 -10.23714,-17.8243 -3.36769,-5.94258 -6.597559,-11.84824 -9.410216,-17.60273 -2.812657,-5.75449 -5.208102,-11.35782 -6.906944,-16.69575 -1.698842,-5.33793 -2.701082,-10.41046 -2.727327,-15.10336 -0.02625,-4.6929 0.923503,-9.00617 3.128636,-12.82557 2.205134,-3.8194 5.46566,-6.79854 9.542954,-9.12227 4.077294,-2.32372 8.971355,-3.99202 14.443559,-5.18974 5.472203,-1.19773 11.522549,-1.92487 17.912412,-2.36629 6.389863,-0.44141 13.119242,-0.59709 19.949514,-0.65187 6.830271,-0.0548 13.761431,-0.009 20.554861,-0.0465 6.79343,-0.0378 13.44913,-0.15964 19.72847,-0.55023 6.27934,-0.39059 12.18232,-1.04997 17.47031,-2.16299 5.288,-1.11301 9.96101,-2.67967 13.78041,-4.8848 3.8194,-2.20513 7.51267,-5.46875 11.12058,-9.49178 3.6079,-4.02303 7.13043,-8.80547 10.60836,-14.04825 3.47793,-5.24277 6.91126,-10.94587 10.34075,-16.81023 3.42949,-5.86437 6.85515,-11.88998 10.31773,-17.77778 3.46258,-5.8878 6.9621,-11.63777 10.5393,-16.95085 3.57721,-5.31308 7.23211,-10.18926 11.00547,-14.32947 3.77337,-4.1402 7.66519,-7.54443 11.71624,-9.91361 4.05105,-2.36918 8.26132,-3.70331 12.67159,-3.70331 z M 0,796.36219 c 0,-4.41027 1.3341283,-8.62054 3.703308,-12.67159 2.3691797,-4.05105 5.7734108,-7.94287 9.913616,-11.71623 4.140206,-3.77336 9.016386,-7.42826 14.329464,-11.00546 5.313078,-3.57721 11.063053,-7.07672 16.950849,-10.5393 5.887797,-3.46258 11.913414,-6.88824 17.777775,-10.31772 5.864361,-3.42949 11.567465,-6.86282 16.810237,-10.34075 5.242772,-3.47793 10.025211,-7.00046 14.04824,-10.60836 4.023029,-3.6079 7.286651,-7.30117 9.491781,-11.12057 2.20513,-3.8194 3.77179,-8.49242 4.88481,-13.78041 1.11302,-5.288 1.7724,-11.19098 2.16299,-17.47032 0.39059,-6.27934 0.51239,-12.93504 0.55023,-19.72847 0.0379,-6.79343 -0.008,-13.7246 0.0465,-20.55487 0.0548,-6.83027 0.21046,-13.55965 0.65188,-19.94952 0.44141,-6.38986 1.16856,-12.44021 2.36628,-17.91241 1.19773,-5.47221 2.86603,-10.36627 5.18975,-14.44357 2.32372,-4.07729 5.30287,-7.33782 9.12227,-9.54295 3.8194,-2.20513 8.13267,-3.15488 12.82557,-3.12863 4.6929,0.0262 9.76543,1.02848 15.10336,2.72732 5.33793,1.69885 10.94125,4.09429 16.69574,6.90695 5.75449,2.81266 11.66015,6.04253 17.60273,9.41022 5.94258,3.36769 11.92209,6.8732 17.8243,10.23714 5.9022,3.36394 11.7271,6.58631 17.36046,9.38772 5.63336,2.80141 11.07518,5.18186 16.21123,6.86195 5.13605,1.6801 9.96632,2.65984 14.37659,2.65984 4.41027,0 9.24054,-0.97974 14.37659,-2.65984 5.13605,-1.68009 10.57787,-4.06054 16.21124,-6.86195 5.63336,-2.80141 11.45826,-6.02378 17.36047,-9.38772 5.90221,-3.36394 11.88172,-6.86945 17.8243,-10.23714 5.94258,-3.36769 11.84824,-6.59756 17.60273,-9.41022 5.75449,-2.81265 11.35782,-5.2081 16.69575,-6.90694 5.33793,-1.69884 10.41046,-2.70108 15.10337,-2.72733 4.6929,-0.0262 9.00617,0.92351 12.82557,3.12864 3.8194,2.20513 6.79854,5.46566 9.12226,9.54295 2.32372,4.0773 3.99202,8.97136 5.18975,14.44356 1.19772,5.4722 1.92487,11.52255 2.36628,17.91241 0.44141,6.38986 0.59709,13.11924 0.65188,19.94952 0.0548,6.83027 0.009,13.76143 0.0465,20.55486 0.0378,6.79343 0.15964,13.44913 0.55023,19.72847 0.39059,6.27934 1.04997,12.18231 2.16299,17.47031 1.11302,5.288 2.67968,9.96101 4.88481,13.78041 2.20513,3.8194 5.46875,7.51267 9.49179,11.12057 4.02303,3.6079 8.80547,7.13044 14.04824,10.60837 5.24277,3.47793 10.94588,6.91126 16.81024,10.34075 5.86436,3.42949 11.88998,6.85514 17.77778,10.31773 5.88779,3.46258 11.63777,6.96209 16.95085,10.5393 5.31308,3.57721 10.18926,7.23211 14.32946,11.00547 4.14021,3.77337 7.54444,7.66519 9.91362,11.71624 2.36918,4.05105 3.70331,8.26132 3.70331,12.67159 0,4.41027 -1.33413,8.62054 -3.70331,12.67159 -2.36918,4.05105 -5.77341,7.94287 -9.91362,11.71623 -4.1402,3.77336 -9.01638,7.42826 -14.32946,11.00546 -5.31308,3.57721 -11.06306,7.07672 -16.95085,10.5393 -5.8878,3.46258 -11.91342,6.88824 -17.77778,10.31772 -5.86436,3.42949 -11.56747,6.86282 -16.81024,10.34075 -5.24278,3.47793 -10.02522,7.00046 -14.04825,10.60836 -4.02303,3.6079 -7.28665,7.30117 -9.49178,11.12057 -2.20513,3.8194 -3.77179,8.49242 -4.88481,13.78041 -1.11302,5.288 -1.7724,11.19098 -2.16299,17.47031 -0.39059,6.27934 -0.51239,12.93504 -0.55023,19.72847 -0.0379,6.79343 0.008,13.72459 -0.0465,20.55486 -0.0548,6.83027 -0.21046,13.55965 -0.65188,19.94952 -0.44141,6.38986 -1.16856,12.44021 -2.36628,17.91241 -1.19773,5.47221 -2.86603,10.36623 -5.18975,14.44353 -2.32372,4.0773 -5.30286,7.3379 -9.12226,9.543 -3.8194,2.2051 -8.13267,3.1549 -12.82557,3.1286 -4.6929,-0.026 -9.76543,-1.0284 -15.10336,-2.7273 -5.33793,-1.6988 -10.94126,-4.0943 -16.69575,-6.9069 -5.75449,-2.8127 -11.66014,-6.0425 -17.60272,-9.4102 -5.94259,-3.36773 -11.9221,-6.87324 -17.8243,-10.23718 -5.90221,-3.36394 -11.72711,-6.58631 -17.36047,-9.38772 -5.63336,-2.80141 -11.07518,-5.18186 -16.21123,-6.86196 -5.13605,-1.6801 -9.96632,-2.65984 -14.37659,-2.65984 -4.41027,0 -9.24054,0.97974 -14.37659,2.65984 -5.13605,1.6801 -10.57787,4.06055 -16.21124,6.86196 -5.63336,2.80141 -11.45826,6.02378 -17.36047,9.38772 -5.9022,3.36394 -11.88172,6.86945 -17.8243,10.23718 -5.94258,3.3677 -11.84824,6.5975 -17.60273,9.4102 -5.75449,2.8126 -11.35782,5.2081 -16.69575,6.9069 -5.33793,1.6989 -10.41046,2.7011 -15.10336,2.7273 -4.6929,0.026 -9.00617,-0.9235 -12.82557,-3.1286 -3.8194,-2.2051 -6.79854,-5.4657 -9.12227,-9.543 -2.32372,-4.0773 -3.99202,-8.97132 -5.18974,-14.44353 -1.19773,-5.4722 -1.92487,-11.52255 -2.36629,-17.91241 -0.44141,-6.38986 -0.59709,-13.11924 -0.65187,-19.94951 -0.0548,-6.83027 -0.009,-13.76143 -0.0465,-20.55486 -0.0378,-6.79343 -0.15964,-13.44913 -0.55023,-19.72846 -0.39059,-6.27934 -1.04997,-12.18232 -2.16299,-17.47031 -1.11301,-5.288 -2.67967,-9.96101 -4.8848,-13.78041 -2.20513,-3.8194 -5.468753,-7.51267 -9.491783,-11.12058 -4.02303,-3.6079 -8.80547,-7.13043 -14.048242,-10.60836 -5.242773,-3.47793 -10.945878,-6.91126 -16.810239,-10.34075 -5.864362,-3.42949 -11.889979,-6.85515 -17.777776,-10.31773 -5.887797,-3.46258 -11.637773,-6.9621 -16.950851,-10.5393 C 22.633311,828.17828 17.757131,824.52338 13.616925,820.75002 9.4767192,816.97665 6.0724879,813.08483 3.7033081,809.03378 1.3341283,804.98273 0,800.77246 0,796.36219 Z"
       transform="matrix(0,1,-1,0,1052.3622,540.36218)" />
    <flowRoot
       xml:space="preserve"
       id="flowRoot4160"
       style="font-style:normal;font-variant:normal;font-weight:normal;font-stretch:normal;font-size:162.5px;line-height:83.99999738%;font-family:'Bebas Neue';-inkscape-font-specification:'Bebas Neue';text-align:center;letter-spacing:-1.83000004px;word-spacing:0px;text-anchor:middle;fill:none;fill-opacity:1;stroke:#ffffff;stroke-width:11.8;stroke-linecap:butt;stroke-linejoin:round;stroke-opacity:1;stroke-miterlimit:4;stroke-dasharray:none;"
       transform="translate(-120.07119,567.01219)"><flowRegion
         id="flowRegion4162"><rect
           id="rect4164"
           width="625.60663"
           height="591.02802"
           x="64"
           y="47.999992"
           style="font-style:normal;font-variant:normal;font-weight:normal;font-stretch:normal;font-size:162.5px;line-height:83.99999738%;font-family:'Bebas Neue';-inkscape-font-specification:'Bebas Neue';text-align:center;letter-spacing:-1.83000004px;text-anchor:middle;fill:none;fill-opacity:1;stroke:#ffffff;stroke-opacity:1;stroke-width:11.8;stroke-miterlimit:4;stroke-dasharray:none;stroke-linejoin:round;" /></flowRegion><flowPara
         id="flowPara4168">holo</flowPara><flowPara
         id="flowPara4195">gram</flowPara><flowPara
         id="flowPara4197">mata</flowPara></flowRoot>    <flowRoot
       transform="translate(-120.07119,567.01219)"
       style="font-style:normal;font-variant:normal;font-weight:normal;font-stretch:normal;font-size:162.5px;line-height:83.99999738%;font-family:'Bebas Neue';-inkscape-font-specification:'Bebas Neue';text-align:center;letter-spacing:-2.08px;word-spacing:0px;text-anchor:middle;fill:#000000;fill-opacity:1;stroke:none;stroke-width:1px;stroke-linecap:butt;stroke-linejoin:miter;stroke-opacity:1;"
       id="flowRoot5752"
       xml:space="preserve"><flowRegion
         id="flowRegion5754"><rect
           style="font-style:normal;font-variant:normal;font-weight:normal;font-stretch:normal;font-size:162.5px;line-height:83.99999738%;font-family:'Bebas Neue';-inkscape-font-specification:'Bebas Neue';text-align:center;letter-spacing:-2.08px;text-anchor:middle;fill:#000000;fill-opacity:1;"
           y="47.999992"
           x="64"
           height="591.02802"
           width="625.60663"
           id="rect5756" /></flowRegion><flowPara
         id="flowPara5776">holo</flowPara><flowPara
         id="flowPara5780">gram</flowPara><flowPara
         id="flowPara5782">mata</flowPara></flowRoot>  </g>
</svg>
